<?xml version="1.0" standalone="no"?>
<!DOCTYPE svg PUBLIC "-//W3C//DTD SVG 20010904//EN"
 "http://www.w3.org/TR/2001/REC-SVG-20010904/DTD/svg10.dtd">
<svg version="1.0" xmlns="http://www.w3.org/2000/svg"
 width="325.000000pt" height="260.000000pt" viewBox="0 0 325.000000 260.000000"
 preserveAspectRatio="xMidYMid meet">
<metadata>
Created by potrace 1.16, written by Peter Selinger 2001-2019
</metadata>
<g transform="translate(0.000000,260.000000) scale(0.100000,-0.100000)"
fill="#000000" stroke="none">
<path d="M0 1300 l0 -1300 1625 0 1625 0 0 1300 0 1300 -1625 0 -1625 0 0
-1300z m1926 398 c4 -7 4 -10 -1 -6 -4 4 -26 -15 -47 -43 l-40 -49 -165 2
-164 3 -30 53 -31 52 236 0 c177 0 237 -3 242 -12z m-294 -208 l126 0 31 -50
c17 -28 31 -52 31 -55 0 -3 -22 -5 -50 -5 l-50 0 0 -57 0 -58 -56 58 -56 57
-132 0 -131 0 -33 54 c-17 30 -32 57 -32 62 0 4 51 4 113 1 61 -4 169 -7 239
-7z m-492 -520 c0 -17 3 -18 26 -9 56 21 78 -8 72 -92 -2 -36 -7 -45 -25 -47
-20 -3 -22 2 -25 45 -3 41 -6 48 -25 51 -21 3 -23 0 -23 -47 0 -48 -2 -51 -25
-51 -25 0 -25 1 -25 85 0 84 0 85 25 85 18 0 25 -5 25 -20z m268 -28 c8 -10
12 -37 10 -67 l-3 -50 -55 -2 c-60 -2 -80 8 -80 42 0 32 24 49 61 41 22 -4 29
-2 26 7 -2 6 -19 12 -37 13 -40 0 -51 20 -18 34 31 13 80 4 96 -18z m430 17
c20 -7 34 -21 41 -40 27 -77 -57 -130 -123 -78 -41 32 -31 99 17 119 29 12 29
12 65 -1z m215 -16 c17 -16 23 -69 9 -89 -24 -36 -92 -44 -122 -14 -20 20 -27
74 -12 97 21 34 90 37 125 6z m172 13 c16 -12 22 -12 42 1 12 8 31 12 43 8 18
-6 20 -15 20 -76 0 -62 -2 -69 -19 -69 -17 0 -20 8 -23 48 -3 39 -6 47 -23 47
-17 0 -20 -8 -23 -48 -3 -43 -5 -48 -25 -45 -19 3 -22 10 -25 51 -3 39 -6 47
-23 47 -16 0 -19 -7 -19 -50 0 -47 -2 -50 -25 -50 -24 0 -25 2 -25 70 l0 70
40 -2 c22 -1 43 2 47 5 9 10 17 9 38 -7z"/>
</g>
</svg>
