<?xml version="1.0" standalone="no"?>
<!DOCTYPE svg PUBLIC "-//W3C//DTD SVG 20010904//EN"
 "http://www.w3.org/TR/2001/REC-SVG-20010904/DTD/svg10.dtd">
<svg version="1.0" xmlns="http://www.w3.org/2000/svg"
 width="4958.000000pt" height="4437.000000pt" viewBox="0 0 4958.000000 4437.000000"
 preserveAspectRatio="xMidYMid meet">

<g transform="translate(0.000000,4437.000000) scale(0.100000,-0.100000)"
fill="#000000" stroke="none">
<path d="M38945 41611 c-658 -347 -1195 -870 -1486 -1446 -325 -644 -333
-1324 -23 -1974 98 -205 157 -279 379 -477 81 -71 167 -143 193 -161 47 -32
151 -78 159 -69 2 2 -13 39 -35 82 -49 98 -89 221 -98 305 -3 35 -19 119 -34
187 -15 67 -23 122 -18 122 6 0 30 -18 55 -40 140 -123 417 -270 661 -350 133
-44 404 -106 542 -124 l45 -6 -30 23 c-196 148 -461 409 -635 628 -123 153
-340 492 -340 530 0 16 153 -127 649 -608 563 -545 759 -760 944 -1037 358
-535 577 -1242 637 -2051 45 -614 -71 -1122 -408 -1785 l-74 -145 74 79 c169
183 394 458 463 565 226 354 367 786 432 1321 21 177 24 608 4 778 -7 63 -11
116 -8 119 12 11 79 -259 103 -412 23 -150 23 -449 0 -610 -18 -127 -67 -344
-97 -433 l-18 -54 28 19 c71 45 204 172 240 229 53 82 151 279 193 389 20 50
39 99 43 110 7 18 9 17 15 -10 5 -24 11 -6 28 85 57 299 78 630 62 947 -6 114
-13 226 -17 248 -3 22 -2 37 2 33 4 -4 20 -76 35 -160 l28 -153 1 162 c3 522
157 956 404 1140 203 150 426 172 638 62 219 -114 339 -347 339 -659 0 -170
-28 -318 -80 -420 -35 -70 -109 -158 -271 -325 -155 -160 -167 -175 -198 -250
-43 -106 -124 -251 -220 -394 -135 -201 -167 -283 -159 -410 7 -103 32 -162
138 -326 125 -192 145 -278 93 -384 l-20 -40 21 11 c12 6 77 46 146 88 427
262 678 450 1196 890 635 540 924 837 1222 1257 47 67 88 121 89 119 5 -5 -87
-245 -152 -396 -74 -173 -207 -448 -324 -670 -122 -229 -238 -559 -372 -1059
-64 -239 -79 -362 -86 -707 -9 -467 32 -824 148 -1274 61 -240 207 -657 223
-639 2 2 -5 51 -15 109 -54 319 -53 658 2 930 19 93 92 356 110 395 15 31 2
-178 -16 -270 -106 -538 -82 -1056 89 -1942 54 -279 67 -389 73 -639 8 -316
-15 -521 -83 -735 -14 -45 -23 -83 -20 -86 10 -11 86 47 117 90 44 58 90 161
135 300 21 64 41 117 44 117 3 0 11 -44 18 -97 58 -443 211 -929 402 -1273 65
-118 189 -310 200 -310 21 0 17 23 -14 91 -92 201 -171 516 -205 829 -23 201
-41 624 -27 609 2 -2 14 -74 26 -159 43 -314 94 -475 289 -914 160 -359 244
-613 277 -839 20 -137 15 -371 -10 -461 -9 -33 -15 -64 -13 -69 6 -19 182 345
230 474 93 255 169 571 202 846 10 76 19 145 22 153 3 8 16 -39 29 -105 29
-147 102 -446 114 -466 15 -23 37 7 55 76 24 85 22 377 -4 690 -32 385 -27
535 35 950 53 356 103 598 280 1350 233 988 287 1255 373 1830 86 572 149
1172 192 1805 16 250 23 1207 10 1467 -65 1294 -309 2358 -754 3295 -376 791
-1038 1374 -1723 1518 -144 30 -359 37 -502 16 -152 -23 -149 -20 -103 -69 44
-47 166 -194 196 -236 11 -15 42 -45 69 -66 173 -137 380 -351 538 -557 68
-90 85 -121 137 -253 128 -324 142 -375 152 -530 4 -77 13 -214 18 -305 58
-925 -145 -1673 -614 -2260 -202 -252 -533 -527 -840 -697 -135 -74 -189 -95
-243 -91 l-47 3 -3 42 c-5 68 49 169 166 311 530 643 836 1255 917 1837 19
130 16 417 -3 465 -12 30 -13 27 -37 -100 -92 -496 -425 -1106 -806 -1475
-137 -133 -251 -209 -325 -217 -24 -2 -29 0 -27 18 1 12 58 101 127 198 559
790 879 1561 967 2326 15 136 15 477 0 605 -13 110 -58 325 -70 338 -5 4 -11
-47 -14 -115 -10 -197 -63 -398 -179 -673 -216 -513 -620 -1114 -984 -1465
-185 -178 -302 -242 -444 -244 -60 -1 -65 1 -68 21 -3 23 7 35 202 223 125
120 354 413 501 639 298 460 529 1019 619 1500 25 132 18 145 -18 36 -245
-735 -905 -1605 -1891 -2492 -275 -247 -843 -713 -869 -713 -3 0 -6 31 -6 69
0 93 -25 279 -56 421 -78 352 -253 717 -481 1000 -124 155 -285 311 -428 416
l-40 29 25 -31 c14 -18 54 -67 89 -110 194 -237 364 -574 455 -903 33 -117 73
-312 92 -451 21 -159 30 -592 15 -772 -18 -208 -67 -518 -70 -443 -2 41 -101
314 -154 428 -139 294 -325 559 -605 863 -99 108 -280 279 -287 272 -3 -2 38
-76 90 -163 256 -429 465 -933 579 -1395 92 -376 129 -666 129 -1030 0 -248
-9 -370 -40 -560 l-18 -105 -7 220 c-3 121 -14 283 -23 360 -74 631 -293 1252
-608 1721 -220 329 -427 537 -750 753 -461 308 -859 686 -1090 1034 -36 54
-78 123 -94 153 -15 30 -31 54 -34 54 -3 0 -11 -45 -18 -100 -47 -421 82 -857
367 -1234 l74 -99 -48 28 c-251 145 -427 333 -557 591 -120 237 -182 493 -196
804 l-7 165 -33 -70 c-48 -101 -116 -314 -137 -430 -15 -77 -19 -146 -18 -300
0 -223 15 -320 78 -510 48 -142 100 -248 201 -410 40 -64 -44 39 -106 129
-204 301 -303 676 -302 1151 1 541 84 835 344 1220 252 372 698 790 1229 1150
171 117 173 120 15 36z"/>
<path d="M10333 38564 c-104 -38 -192 -163 -227 -321 -25 -112 -38 -313 -30
-460 5 -102 4 -133 -6 -133 -6 0 -418 -56 -913 -125 -496 -69 -1048 -145
-1227 -170 -179 -25 -518 -72 -754 -105 -236 -33 -440 -60 -452 -60 -13 0 -25
-4 -28 -8 -3 -4 36 -43 86 -85 99 -85 94 -83 223 -67 44 5 217 26 385 45 168
19 400 46 515 59 307 36 2196 256 2200 256 2 0 6 -24 10 -52 15 -115 68 -347
105 -459 88 -270 199 -411 321 -411 148 0 251 190 311 577 30 192 32 686 5
899 -44 338 -133 537 -271 608 -54 28 -192 35 -253 12z m172 -75 c65 -16 125
-74 168 -161 169 -344 164 -1305 -8 -1655 -59 -120 -120 -151 -186 -96 -182
154 -335 821 -316 1378 10 263 44 393 127 475 63 64 127 81 215 59z"/>
<path d="M5709 33898 c-77 -104 -248 -412 -484 -875 -104 -204 -110 -213 -162
-249 -167 -115 -426 -458 -593 -785 -38 -75 -90 -161 -114 -192 -111 -136
-247 -382 -330 -594 -26 -68 -1178 -4070 -1221 -4245 -6 -24 1 -33 77 -93 211
-168 533 -359 796 -472 l72 -31 0 -1556 c0 -1733 3 -1650 -70 -2016 -39 -192
-90 -392 -254 -1003 -129 -478 -198 -797 -252 -1165 -35 -238 -26 -295 65
-409 l41 -52 0 -418 c0 -230 5 -506 10 -613 67 -1326 315 -2235 752 -2755 195
-232 446 -384 724 -439 60 -12 -90 -14 -1147 -15 -1052 -1 -1222 -3 -1265 -16
-222 -68 -332 -403 -214 -654 37 -77 107 -153 173 -186 47 -23 62 -25 179 -25
l128 0 0 -34 c0 -18 -7 -100 -15 -182 -8 -82 -121 -1260 -250 -2619 -428
-4488 -613 -6424 -831 -8705 -125 -1306 -213 -2277 -211 -2307 11 -109 91
-219 196 -270 47 -23 69 -27 142 -28 79 0 92 3 154 35 83 42 146 113 170 192
11 35 74 657 188 1858 l172 1805 3777 3 3776 2 6 -52 c3 -29 80 -834 171
-1788 91 -954 168 -1753 171 -1775 16 -102 95 -205 193 -252 47 -23 70 -27
141 -28 77 0 92 3 152 33 123 60 190 169 190 307 -1 39 -66 754 -146 1590 -80
836 -148 1554 -151 1595 -4 41 -11 113 -16 160 -5 47 -9 93 -9 102 0 11 59
-30 173 -121 207 -166 726 -563 904 -692 419 -305 832 -551 1405 -840 153 -76
279 -139 282 -139 2 0 14 30 27 67 79 240 317 702 557 1083 70 111 209 310
301 430 l19 25 -143 138 -143 137 -124 -58 c-68 -33 -199 -105 -293 -161 -139
-84 -173 -101 -187 -92 -10 6 -27 11 -38 11 -12 0 -32 12 -45 26 -41 44 -35
83 63 395 17 53 33 118 37 145 4 27 14 73 22 102 8 30 13 56 10 58 -15 16
-536 -50 -601 -77 -156 -62 -230 40 -132 182 20 30 75 103 121 163 46 60 100
139 119 176 l36 67 -53 7 c-28 3 -226 6 -438 6 -369 0 -387 1 -411 20 -14 10
-31 32 -37 49 -11 25 -9 35 12 77 28 54 106 134 177 181 113 76 259 130 440
162 127 23 185 26 226 11 l27 -11 -6 45 c-4 26 -16 55 -29 69 -13 13 -38 43
-57 67 -19 23 -61 62 -95 87 -34 25 -114 97 -179 161 l-117 116 97 170 c666
1170 1474 2377 2627 3920 281 376 351 465 357 450 5 -10 45 -284 89 -609 l82
-590 348 -1375 c1303 -5143 1271 -5016 1260 -5044 -16 -44 -48 -240 -61 -376
-7 -69 -12 -255 -12 -415 0 -366 27 -711 79 -1018 16 -90 20 -100 43 -109 51
-20 620 -179 811 -227 499 -126 753 -154 1730 -193 399 -15 1044 -15 1235 0
212 18 508 49 730 78 199 26 557 83 564 89 2 3 -8 46 -22 97 -104 368 -190
1147 -174 1575 l6 161 -62 7 c-34 4 -107 13 -162 22 -55 8 -117 17 -137 20
-31 5 -39 2 -45 -13 -3 -11 -26 -51 -50 -91 -35 -58 -188 -389 -216 -466 -4
-9 -15 -20 -24 -23 -10 -3 -26 -10 -35 -15 -27 -14 -71 -11 -97 7 -31 22 -69
108 -121 274 -23 74 -59 172 -81 217 -21 45 -41 94 -45 108 -3 14 -10 27 -14
30 -18 11 -415 -348 -445 -403 -61 -109 -155 -121 -200 -26 -15 32 -17 63 -14
243 3 184 -5 341 -18 341 -11 0 -280 -182 -491 -333 -129 -92 -242 -167 -253
-167 -30 0 -88 32 -95 52 -10 34 -8 142 5 198 20 83 101 245 168 335 74 99
236 256 283 275 19 7 37 15 38 16 7 5 -42 64 -54 64 -6 0 -40 9 -75 21 -40 13
-99 22 -159 24 -99 4 -330 35 -330 45 0 3 22 23 50 43 31 23 50 45 50 57 0 11
-34 274 -75 583 -41 309 -151 1143 -245 1852 -94 710 -195 1475 -225 1700 -94
711 -462 3502 -768 5823 l-103 783 104 170 c661 1093 901 1903 763 2572 -75
361 -265 695 -554 974 -86 83 -108 98 -219 152 -724 350 -2653 709 -4508 840
-908 64 -1911 78 -2640 35 -164 -9 -521 -17 -935 -21 l-670 -5 -68 234 -68
233 16 190 c24 297 35 686 35 1228 0 652 -29 1979 -43 1994 -3 3 -39 -15 -79
-40 -320 -197 -683 -370 -1010 -481 -448 -152 -954 -226 -1138 -168 -209 67
-380 254 -496 541 -72 176 -133 456 -134 609 -1 33 -68 387 -159 832 -86 426
-154 776 -150 778 3 2 89 -18 190 -43 275 -69 375 -86 554 -92 194 -7 321 6
501 52 251 63 538 196 851 395 12 8 24 12 26 10 2 -3 21 -237 41 -520 21 -283
40 -517 42 -519 4 -4 281 108 710 286 l180 75 -13 62 c-7 33 -18 171 -25 305
-17 372 9 1281 64 2191 28 459 30 846 5 1045 -106 835 -477 1694 -1067 2470
l-107 141 33 179 c65 354 97 633 78 668 -5 9 -48 43 -94 75 -47 32 -224 155
-395 273 -1129 784 -1741 1174 -1964 1250 -73 25 -83 24 -112 -13z m6446
-18839 c1089 -132 1982 -243 1985 -246 3 -2 -37 -43 -88 -91 -204 -187 -587
-608 -818 -898 -386 -484 -610 -853 -1162 -1919 -766 -1478 -1219 -2698 -1490
-4011 l-37 -181 -75 -61 c-41 -34 -92 -75 -112 -92 l-37 -31 -5 23 c-3 13
-107 1092 -231 2398 -124 1306 -284 2982 -355 3725 -71 742 -126 1353 -124
1357 3 4 67 8 143 8 127 0 141 2 189 26 64 32 134 108 170 185 22 47 31 57 47
54 11 -3 911 -113 2000 -246z m-3240 -61 c9 -67 265 -2768 265 -2800 l0 -28
-3071 0 -3071 0 6 48 c3 26 65 666 136 1422 72 756 133 1381 135 1388 3 9 572
12 2799 12 l2795 0 6 -42z m329 -3450 c3 -13 107 -1096 231 -2408 124 -1312
227 -2393 230 -2404 2 -11 -35 -84 -91 -180 -104 -177 -254 -466 -254 -490 0
-18 88 -134 302 -398 116 -144 158 -203 163 -231 l7 -37 -3719 0 -3719 0 18
183 c9 100 78 821 152 1602 75 781 199 2082 276 2890 77 809 142 1476 145
1483 3 9 639 12 3129 12 l3126 0 4 -22z"/>
<path d="M42036 31591 c-3 -5 11 -12 31 -16 68 -13 143 -46 143 -63 0 -11 31
-34 82 -62 137 -75 272 -218 347 -368 66 -129 113 -310 132 -508 14 -142 7
-417 -16 -588 -9 -65 -140 -670 -291 -1345 -152 -674 -287 -1278 -301 -1341
-13 -63 -29 -124 -33 -135 -7 -15 -442 -1946 -614 -2725 -8 -36 -20 -95 -26
-133 -19 -117 -80 -284 -169 -461 -184 -366 -444 -734 -922 -1306 -114 -136
-269 -328 -345 -426 -602 -781 -1340 -1623 -2065 -2359 l-286 -290 -7 -141
c-16 -355 -83 -690 -203 -1016 -43 -117 -52 -134 -125 -220 -207 -245 -384
-481 -444 -593 l-27 -50 24 22 c26 24 69 31 107 19 59 -19 78 -161 47 -340
-27 -153 -148 -430 -223 -509 -41 -44 -59 -50 -162 -58 -77 -5 -108 -13 -160
-38 -61 -29 -72 -31 -179 -31 -63 0 -152 5 -198 12 -68 10 -96 9 -156 -2 -148
-29 -217 -13 -300 71 -64 63 -60 62 -164 83 -148 30 -219 85 -355 277 -85 118
-154 256 -169 334 -16 88 -5 260 26 385 14 58 48 179 75 270 26 91 63 219 80
285 46 174 93 268 194 384 355 410 841 867 1435 1349 141 114 182 153 214 204
55 86 438 725 525 876 l72 123 -28 10 c-15 6 -83 31 -152 56 -1638 587 -3140
962 -4270 1067 -369 34 -818 43 -1026 20 l-51 -6 -7 -176 c-4 -98 -16 -323
-26 -502 -57 -973 -51 -1349 30 -1850 138 -845 305 -1560 423 -1810 64 -138
258 -509 492 -945 649 -1207 897 -1773 1060 -2416 44 -172 115 -554 115 -616
0 -3 47 39 103 94 504 485 1360 999 2279 1368 89 36 166 65 171 65 6 0 34 -23
63 -50 83 -78 116 -90 267 -90 l127 0 0 -28 c0 -15 -92 -995 -205 -2178 -113
-1182 -307 -3211 -430 -4509 -248 -2595 -303 -3171 -526 -5500 -87 -916 -149
-1602 -146 -1632 11 -108 91 -220 193 -268 184 -87 409 9 470 200 10 32 76
682 187 1855 l172 1805 3776 3 3777 2 6 -52 c3 -29 80 -834 171 -1788 91 -954
168 -1753 171 -1775 16 -102 95 -205 193 -252 47 -23 70 -27 141 -28 77 0 92
3 152 33 123 60 190 169 190 307 -1 39 -120 1321 -266 2850 -147 1529 -327
3417 -401 4195 -74 778 -191 2005 -260 2725 -69 721 -183 1920 -254 2664 -72
745 -128 1359 -125 1363 3 4 63 8 133 8 150 0 199 13 264 71 157 138 199 409
95 613 -29 57 -105 134 -163 164 l-50 27 -1155 5 c-635 3 -1147 6 -1138 8 10
1 102 29 205 63 285 93 623 246 873 397 859 516 1350 1278 1486 2304 22 166
30 622 15 815 -24 295 -82 645 -146 878 l-24 90 5 -92 c7 -113 -9 -175 -68
-263 -117 -176 -462 -351 -923 -468 -201 -51 -362 -85 -535 -111 -199 -30
-1244 -108 -1760 -131 -287 -13 -841 -13 -1035 0 -829 54 -1270 246 -1449 631
-54 116 -58 100 56 229 162 185 381 421 574 620 422 436 822 878 1249 1380 82
96 197 229 255 295 362 411 480 562 621 798 201 333 280 617 434 1562 36 220
93 547 125 727 118 646 149 720 459 1117 134 172 191 260 279 436 210 421 324
845 351 1315 15 247 -11 925 -45 1190 -30 234 -90 478 -157 637 -134 317 -477
724 -718 853 -86 46 -247 77 -263 51z m270 -117 c18 -14 18 -14 -6 -3 -31 14
-36 19 -24 19 6 0 19 -7 30 -16z m140 -95 c3 -6 -17 6 -45 26 -28 20 -51 39
-51 41 0 7 88 -55 96 -67z m109 -108 c-3 -2 -6 -2 -7 0 -2 2 -21 24 -43 49
l-40 45 47 -44 c26 -25 45 -47 43 -50z m36 -38 c13 -16 12 -17 -3 -4 -17 13
-22 21 -14 21 2 0 10 -8 17 -17z m30 -40 c13 -16 12 -17 -3 -4 -17 13 -22 21
-14 21 2 0 10 -8 17 -17z m79 -123 c6 -11 8 -20 6 -20 -3 0 -10 9 -16 20 -6
11 -8 20 -6 20 3 0 10 -9 16 -20z m157 -402 c-3 -8 -6 -5 -6 6 -1 11 2 17 5
13 3 -3 4 -12 1 -19z m20 -70 c-3 -8 -6 -5 -6 6 -1 11 2 17 5 13 3 -3 4 -12 1
-19z m20 -80 c-3 -8 -6 -5 -6 6 -1 11 2 17 5 13 3 -3 4 -12 1 -19z m10 -40
c-3 -8 -6 -5 -6 6 -1 11 2 17 5 13 3 -3 4 -12 1 -19z m10 -40 c-3 -8 -6 -5 -6
6 -1 11 2 17 5 13 3 -3 4 -12 1 -19z m10 -60 c-3 -7 -5 -2 -5 12 0 14 2 19 5
13 2 -7 2 -19 0 -25z m10 -50 c-3 -7 -5 -2 -5 12 0 14 2 19 5 13 2 -7 2 -19 0
-25z m10 -50 c-3 -7 -5 -2 -5 12 0 14 2 19 5 13 2 -7 2 -19 0 -25z m20 -110
c-3 -8 -6 -5 -6 6 -1 11 2 17 5 13 3 -3 4 -12 1 -19z m10 -70 c-3 -7 -5 -2 -5
12 0 14 2 19 5 13 2 -7 2 -19 0 -25z m10 -75 c-3 -10 -5 -4 -5 12 0 17 2 24 5
18 2 -7 2 -21 0 -30z m10 -90 c-3 -10 -5 -4 -5 12 0 17 2 24 5 18 2 -7 2 -21
0 -30z m10 -90 c-3 -10 -5 -2 -5 17 0 19 2 27 5 18 2 -10 2 -26 0 -35z m10
-90 c-3 -10 -5 -2 -5 17 0 19 2 27 5 18 2 -10 2 -26 0 -35z m10 -130 c-3 -10
-5 -2 -5 17 0 19 2 27 5 18 2 -10 2 -26 0 -35z m10 -370 c-1 -49 -3 -9 -3 87
0 96 2 136 3 88 2 -49 2 -127 0 -175z m-10 -215 c-2 -13 -4 -5 -4 17 -1 22 1
32 4 23 2 -10 2 -28 0 -40z m-10 -115 c-3 -10 -5 -2 -5 17 0 19 2 27 5 18 2
-10 2 -26 0 -35z m-10 -85 c-3 -7 -5 -2 -5 12 0 14 2 19 5 13 2 -7 2 -19 0
-25z m-10 -70 c-3 -7 -5 -2 -5 12 0 14 2 19 5 13 2 -7 2 -19 0 -25z m-10 -60
c-3 -8 -6 -5 -6 6 -1 11 2 17 5 13 3 -3 4 -12 1 -19z m-10 -50 c-3 -8 -6 -5
-6 6 -1 11 2 17 5 13 3 -3 4 -12 1 -19z m-30 -150 c-3 -8 -6 -5 -6 6 -1 11 2
17 5 13 3 -3 4 -12 1 -19z m-176 -525 c-12 -20 -14 -14 -5 12 4 9 9 14 11 11
3 -2 0 -13 -6 -23z m-251 -436 c0 -2 -10 -12 -22 -23 l-23 -19 19 23 c18 21
26 27 26 19z m-40 -50 c0 -2 -12 -14 -27 -28 l-28 -24 24 28 c23 25 31 32 31
24z m-60 -70 c0 -1 -37 -38 -82 -82 l-83 -80 80 83 c74 76 85 87 85 79z m-180
-170 c0 -2 -10 -12 -22 -23 l-23 -19 19 23 c18 21 26 27 26 19z m-50 -41 c0
-2 -8 -10 -17 -17 -16 -13 -17 -12 -4 4 13 16 21 21 21 13z m1305 -11878 c9
-70 265 -2768 265 -2799 l0 -29 -3071 0 -3071 0 6 48 c3 26 65 666 136 1422
72 756 132 1381 135 1388 3 9 572 12 2799 12 l2795 0 6 -42z m329 -3460 c3
-18 19 -177 36 -353 53 -568 540 -5668 546 -5727 l7 -58 -3720 0 -3720 0 4 28
c2 15 37 383 78 818 235 2484 506 5301 510 5312 3 9 639 12 3129 12 l3125 0 5
-32z"/>
<path d="M16065 28148 c-39 -34 -122 -110 -185 -168 -63 -59 -158 -140 -211
-182 -52 -41 -110 -95 -129 -119 l-34 -44 45 41 c24 22 87 76 139 119 150 125
464 415 449 415 -2 0 -36 -28 -74 -62z"/>
<path d="M16570 27912 c-102 -103 -144 -150 -95 -105 50 45 115 108 145 140
119 125 144 153 140 153 -3 0 -88 -85 -190 -188z"/>
<path d="M15070 28019 c-41 -34 -93 -70 -115 -80 -46 -21 -30 -26 18 -5 38 16
144 97 164 126 8 11 13 20 11 20 -2 0 -37 -28 -78 -61z"/>
<path d="M16344 27698 l-19 -23 23 19 c12 11 22 21 22 23 0 8 -8 2 -26 -19z"/>
<path d="M16294 27658 l-19 -23 23 19 c12 11 22 21 22 23 0 8 -8 2 -26 -19z"/>
<path d="M16155 27562 c-151 -105 -365 -262 -365 -268 0 -8 234 153 368 253
61 45 112 85 112 88 0 7 5 11 -115 -73z"/>
<path d="M35575 17810 c-31 -61 -76 -198 -116 -350 l-30 -115 28 -125 c27
-125 44 -143 24 -26 -6 35 -11 88 -11 119 0 58 54 283 108 455 16 50 28 92 26
92 -2 0 -15 -22 -29 -50z"/>
<path d="M26538 8577 c-189 -383 -858 -887 -1803 -1360 -545 -272 -1142 -512
-1515 -607 -290 -75 -631 75 -1051 462 l-97 88 -158 15 c-88 9 -204 20 -259
25 -142 14 -566 14 -650 1 -180 -29 -235 -78 -235 -205 0 -106 76 -278 175
-398 116 -142 574 -452 924 -627 381 -191 658 -269 986 -278 160 -5 190 -3
270 16 117 28 254 95 444 215 195 123 407 241 580 323 75 35 199 95 276 133
158 78 330 139 485 170 86 18 126 21 220 17 174 -8 170 -5 170 -139 0 -92 -14
-165 -81 -408 -112 -409 -195 -643 -311 -876 -65 -132 -81 -172 -85 -222 -6
-60 -5 -62 30 -97 51 -51 108 -43 152 23 11 16 38 56 61 88 23 33 73 117 113
187 39 71 105 176 145 235 41 59 124 190 186 292 62 102 181 286 265 410 668
989 862 1393 906 1884 14 153 1 297 -38 443 -14 54 -35 135 -47 181 l-21 82
-37 -73z"/>
<path d="M12726 6114 c-116 -21 -179 -41 -294 -94 l-103 -47 148 -5 c155 -6
401 -48 505 -88 27 -10 48 -15 46 -12 -25 47 -78 166 -88 197 -7 22 -19 46
-28 53 -20 15 -85 14 -186 -4z"/>
<path d="M13096 5740 c-3 -8 -20 -55 -37 -105 -33 -95 -60 -153 -90 -196 l-18
-26 137 -7 c75 -4 175 -13 222 -20 47 -7 87 -12 89 -10 2 2 -21 31 -51 66 -60
69 -203 249 -230 288 -13 20 -17 22 -22 10z"/>
<path d="M34513 5662 c5 -31 6 -109 3 -172 -22 -466 -309 -1182 -808 -2015
-366 -610 -855 -1268 -1029 -1384 -89 -60 -207 -100 -354 -121 -167 -23 -480
-6 -705 40 l-97 20 -219 -114 c-234 -121 -485 -269 -614 -362 -158 -113 -232
-214 -214 -291 26 -115 189 -246 388 -314 198 -68 852 -78 1253 -19 483 71
883 241 1091 465 83 89 138 182 245 411 114 244 254 499 358 655 21 31 63 100
95 155 93 161 170 261 313 405 125 125 144 139 234 184 l98 48 34 -33 c68 -66
117 -181 224 -530 106 -344 166 -608 186 -819 24 -240 57 -311 147 -311 34 0
50 6 68 25 l23 25 0 1212 c0 1296 -4 1430 -48 1703 -42 256 -101 441 -202 636
-73 143 -163 259 -285 371 -56 51 -123 114 -148 140 l-47 47 10 -57z"/>
<path d="M13586 5094 c-8 -82 -51 -275 -77 -352 -11 -30 -18 -57 -16 -58 2 -2
34 19 73 47 38 27 96 63 129 78 33 16 83 39 111 52 l51 24 -132 139 -132 138
-7 -68z"/>
<path d="M20103 3842 c-67 -53 -166 -164 -217 -242 -54 -82 -109 -180 -102
-180 3 0 33 22 67 49 93 75 473 261 534 261 22 0 18 18 -5 25 -11 3 -60 33
-110 66 -50 32 -97 59 -104 59 -8 0 -36 -17 -63 -38z"/>
<path d="M20538 3673 c20 -36 72 -255 72 -299 0 -24 2 -44 5 -44 2 0 37 22 77
49 40 27 126 78 191 114 l118 65 -73 17 c-71 17 -345 97 -382 111 -16 6 -17 4
-8 -13z"/>
<path d="M21305 3450 c34 -54 100 -203 140 -317 l33 -93 32 93 c17 50 58 136
90 189 56 93 57 98 37 103 -41 9 -344 65 -351 65 -3 0 5 -18 19 -40z"/>
</g>
</svg>
